<?xml version="1.0" encoding="UTF-8" standalone="no"?>
<!-- Created with Inkscape (http://www.inkscape.org/) -->

<svg
   width="60.366497mm"
   height="74.24366mm"
   viewBox="0 0 60.366498 74.24366"
   version="1.1"
   id="svg1"
   xmlns="http://www.w3.org/2000/svg"
   xmlns:svg="http://www.w3.org/2000/svg">
  <defs
     id="defs1" />
  <g
     id="layer1"
     transform="translate(-27.34228,-20.50463)">
    <path
       id="path3"
       d="m 80.594862,31.936978 c 0,0 5.76536,7.656301 7.37279,30.057229 1.60648,22.400936 -5.29094,29.410207 -21.17052,32.718606 -9.89726,2.061609 -29.58666,-0.392454 -29.68117,-1.148448 -0.0945,-0.756944 23.34592,-79.869427 43.4789,-61.627387"
       style="fill:#0c080a;fill-opacity:1;fill-rule:nonzero;stroke:none;stroke-width:0.00964268" />
    <path
       id="path5"
       d="m 69.914612,70.028496 c -1.15905,0.630637 -2.11657,1.481119 -2.90631,2.46274 -1.35962,1.68362 -2.23131,3.752937 -2.80409,5.760544 -0.94402,3.314198 -1.07227,6.457714 -1.22173,7.421981 -0.66148,4.285206 -10.35335,2.035563 -15.94804,-1.035622 -2.51289,-1.378914 -4.19939,-2.92463 -3.86961,-4.117428 -8.2e-4,-0.01348 4.63138,-16.541072 4.63138,-16.541072 0,0 19.71544,3.316116 22.1184,6.048857"
       style="fill:#f57856;fill-opacity:1;fill-rule:nonzero;stroke:none;stroke-width:0.00964268" />
    <path
       id="path6"
       d="m 81.917832,58.118816 c 1.11663,1.673959 0.53711,2.673908 -2.64595,3.213902 -4.00172,0.505273 -0.2835,-9.262768 -0.2835,-9.262768 0.0443,-0.146572 1.98447,4.631384 2.92945,6.048866"
       style="fill:#f57856;fill-opacity:1;fill-rule:nonzero;stroke:none;stroke-width:0.00964268" />
    <path
       id="path7"
       d="m 79.177382,65.302615 c 0.94498,1.322976 0.0945,2.36342 -1.03949,2.36342 -0.007,0 -0.0174,0.01059 -0.028,0.03184 -0.19575,0.377029 -0.89292,3.969896 -1.95748,4.977562 -1.65853,1.571754 -5.3324,1.345159 -12.22788,-0.71549 l -13.70897,-3.362398 c 0,0 -15.0937,-17.046353 -10.71302,-33.847775 2.4338,-9.334123 16.23346,-12.264534 27.29266,-9.239626 5.70655,1.560191 11.34077,4.668025 13.13816,10.018762 0.58918,1.753039 0.189,12.665666 0.189,12.665666 -0.0212,0.536131 -1.01729,3.827187 -1.03948,4.347893 -0.12922,2.978623 0.46575,5.984252 0.189,8.412278 -0.053,0.464785 -0.2835,1.133981 0.28349,2.079929 0.009,0.0074 0.0174,0.01737 0.0241,0.02696 0.53709,0.593029 0.34231,2.240967 -0.4021,2.240967"
       style="fill:#f57856;fill-opacity:1;fill-rule:nonzero;stroke:none;stroke-width:0.00964268" />
    <path
       id="path8"
       d="m 75.669372,52.345733 c -0.0646,0.862053 0.28542,1.591042 0.78106,1.627682 0.49659,0.03763 0.95173,-0.631596 1.01633,-1.492682 0.0646,-0.862062 -0.2507,-1.130127 -0.7473,-1.166777 -0.4966,-0.03763 -0.98645,0.169715 -1.05009,1.031777"
       style="fill:#261310;fill-opacity:1;fill-rule:nonzero;stroke:none;stroke-width:0.00964268" />
    <path
       id="path9"
       d="m 66.795202,72.769913 c -1.35962,1.68458 -2.01821,3.47426 -2.59099,5.481867 -2.98248,-1.545725 -7.58397,-4.616918 -11.20866,-10.113251 7.79129,2.539884 11.73997,4.05379 13.79965,4.631384"
       style="fill:#f46b4d;fill-opacity:1;fill-rule:nonzero;stroke:none;stroke-width:0.00964268" />
    <path
       id="path10"
       d="m 78.610392,48.950536 c 0.3481,0.119575 1.29983,-1.150367 -0.0945,-1.51197 -2.55241,-0.661488 -3.7809,-0.377997 -6.52232,1.039484 -0.60556,0.313383 -1.32297,1.322968 -1.32297,1.322968 0.16971,0.270969 4.06439,-2.173458 7.93979,-0.850482"
       style="fill:#261310;fill-opacity:1;fill-rule:nonzero;stroke:none;stroke-width:0.00964268" />
    <path
       id="path12"
       d="m 68.986982,61.186147 c -0.98451,1.284408 -3.37494,1.10409 -5.33915,-0.40114 -1.96422,-1.50618 -2.75781,-3.768354 -1.7733,-5.052762 0.98452,-1.284409 3.37495,-1.104091 5.33917,0.402098 1.96421,1.506189 2.7578,3.767396 1.77328,5.051804"
       style="fill:#f46b4d;fill-opacity:1;fill-rule:nonzero;stroke:none;stroke-width:0.00964268" />
    <path
       id="path13"
       d="m 72.371572,53.014929 c 0,0 3.30841,-1.133982 5.76632,-1.133982 0.59785,0 0.378,-1.22847 0.378,-1.22847 0,0 -0.94691,0.353886 -1.13494,0.377988 -3.02396,0.377997 -5.00938,1.606476 -5.00938,1.606476 v 0.377988"
       style="fill:#261310;fill-opacity:1;fill-rule:nonzero;stroke:none;stroke-width:0.00964268" />
    <path
       id="path14"
       d="m 79.177382,65.302615 c 0.94498,1.322976 0.0945,2.36342 -1.03949,2.36342 -0.007,0 -0.0174,0.01059 -0.028,0.03184 -1.10699,-0.883261 -1.20149,-1.733751 -2.80796,-2.867733 2.83591,-0.283492 2.45793,-1.417474 4.27751,-1.768474 0.53709,0.593029 0.3423,2.240967 -0.40211,2.240967"
       style="fill:#f46b4d;fill-opacity:1;fill-rule:nonzero;stroke:none;stroke-width:0.00964268" />
    <path
       id="path15"
       d="m 80.216862,36.757356 c 0,0 -7.29469,4.342103 -15.69059,6.144322 -7.33133,1.572722 -6.00353,6.017039 -7.05651,9.25506 -0.10801,0.331704 -0.2401,0.650877 -0.40982,0.952697 -1.0578,1.884177 -1.60646,4.628489 -1.91503,7.819258 -0.65957,6.796158 0.46669,25.202128 -4.64393,30.505612 -1.07323,1.113726 -16.49574,8.454709 -22.75675,0.867835 -8.03428,-9.735254 -3.12808,-36.926677 -1.30851,-44.863574 6.80485,-29.679236 31.89416,-28.507649 46.59734,-24.102869 2.82434,0.846628 11.0592,5.388337 7.1838,13.421659"
       style="fill:#0c080a;fill-opacity:1;fill-rule:nonzero;stroke:none;stroke-width:0.00964268" />
    <path
       id="path16"
       d="m 57.154442,60.482236 c -0.55927,0.207315 -1.04044,0.472486 -2.00953,0.446457 0.30857,-3.190769 0.85723,-5.935081 1.91503,-7.819258 0.16972,-0.30182 0.30181,-0.620993 0.40982,-0.952697 1.41458,2.361494 1.14941,7.782609 -0.31532,8.325498"
       style="fill:#f46b4d;fill-opacity:1;fill-rule:nonzero;stroke:none;stroke-width:0.00964268" />
    <path
       id="path17"
       d="m 55.907642,49.854061 c -5.74994,-2.312322 -5.79526,4.814597 -3.55236,7.961967 1.25355,1.758829 4.28328,2.108853 5.4134,1.62961 1.75979,-0.745373 0.89098,-8.48556 -1.86104,-9.591577"
       style="fill:#f57856;fill-opacity:1;fill-rule:nonzero;stroke:none;stroke-width:0.00964268" />
    <path
       id="path18"
       d="m 57.282682,56.052377 c 0.27483,-0.138855 0.93245,-0.991265 -0.0299,-1.230406 -2.34028,-0.582417 -0.30278,-1.402048 -1.23137,-1.383719 -1.02887,0.01927 -1.04623,0.560233 -0.94112,1.207263 0.10414,0.64799 1.43868,1.790648 2.20238,1.406862"
       style="fill:#f46b4d;fill-opacity:1;fill-rule:nonzero;stroke:none;stroke-width:0.00964268" />
    <path
       id="path19"
       d="m 56.932662,52.355368 c 0.20635,0.05401 0.38474,-1.131087 -0.7126,-1.659501 -3.68543,-1.772328 -5.19644,1.850431 -3.98435,4.982376 0.5882,1.519687 2.58327,2.747207 2.77709,2.525426 -1.72508,-1.792584 -4.15696,-4.874381 -1.35094,-6.735424 2.01917,-1.338402 2.96416,0.807092 3.2708,0.887123"
       style="fill:#f46b4d;fill-opacity:1;fill-rule:nonzero;stroke:none;stroke-width:0.00964268" />
    <path
       id="path20"
       d="m 67.937852,90.233782 c -0.14463,0.0087 -11.09004,0.656675 -15.25376,-2.376918 0.46093,-1.293085 0.8071,-2.741418 1.07131,-4.296786 0.0116,-0.0646 0.0212,-0.128243 0.0318,-0.193817 0.99223,-0.706805 2.23614,-1.320081 3.53693,-1.699996 0.72899,0.421378 1.44351,0.86398 2.14261,1.324903 2.85135,1.879355 5.45584,4.079819 7.78744,6.514594 0.21792,0.251672 0.44453,0.495636 0.68366,0.72802"
       style="fill:#f57856;fill-opacity:1;fill-rule:nonzero;stroke:none;stroke-width:0.00964268" />
  </g>
</svg>
