<?xml version="1.0" encoding="UTF-8" standalone="no"?>
<!-- Created with Inkscape (http://www.inkscape.org/) -->

<svg
   width="60.366497mm"
   height="74.24366mm"
   viewBox="0 0 60.366498 74.24366"
   version="1.1"
   id="svg1"
   xmlns="http://www.w3.org/2000/svg"
   xmlns:svg="http://www.w3.org/2000/svg">
  <defs
     id="defs1" />
  <g
     id="layer1"
     transform="translate(-27.34228,-20.50463)">
    <path
       id="path21"
       d="m 83.689757,58.918496 c 0,16.235234 -14.239061,7.239203 -27.820615,16.134958 C 52.684733,77.139502 51.917473,72.27489 49.74912,74.775312 43.396368,82.101553 38.969771,87.863962 31.320931,85.861175 6.3167262,79.314476 12.469852,61.678137 12.469852,51.592249 c 0,-16.235228 21.88507,-45.9034886 55.362143,-21.886011 12.055568,5.008415 15.857762,12.976076 15.857762,29.212258"
       style="fill:#261210;fill-opacity:1;fill-rule:nonzero;stroke:none;stroke-width:0.00946053" />
    <path
       id="path23"
       d="m 74.044731,79.9682 c -1.136211,0.618715 -2.075638,1.453134 -2.851403,2.416225 -1.332996,1.652751 -2.188223,3.682038 -2.750183,5.651724 -0.926183,3.251592 -1.052955,6.33572 -1.199598,7.281771 -0.648048,4.204268 -10.156825,1.998068 -15.645836,-1.015109 -2.465423,-1.353805 -4.12007,-2.869383 -3.796522,-4.040599 -5.98e-4,-0.01325 4.543902,-16.228609 4.543902,-16.228609 0,0 19.343017,3.254427 21.69964,5.934597"
       style="fill:#973626;fill-opacity:1;fill-rule:nonzero;stroke:none;stroke-width:0.00946053" />
    <path
       id="path24"
       d="m 85.544021,67.635439 c 1.205271,2.595973 0.834412,3.893959 -2.689629,3.987616 -3.926126,0.494787 0.09271,-9.274167 0.09271,-9.274167 0.04449,-0.143799 1.89306,3.77003 2.596924,5.286551"
       style="fill:#973626;fill-opacity:1;fill-rule:nonzero;stroke:none;stroke-width:0.00946053" />
    <path
       id="path25"
       d="m 83.132526,75.33159 c 0.92809,1.298927 0.09367,2.318778 -1.019851,2.318778 -0.0075,0 -0.01608,0.01133 -0.02645,0.03124 -0.192055,0.369904 -0.876994,3.894907 -1.920491,4.883527 -1.628159,1.542074 -5.232625,1.31975 -11.99691,-0.70197 l -13.450053,-3.29889 c 0,0 -14.808583,-16.724349 -10.510664,-33.207453 2.387839,-9.158746 15.926831,-12.033808 26.777118,-9.066031 5.598745,1.531666 11.032885,5.971495 12.797275,11.221148 0.577092,1.719926 0.278144,11.034774 0.278144,11.034774 -0.02084,0.526005 -0.998093,3.754892 -1.020795,4.265759 -0.125828,2.922355 0.457881,5.871204 0.186373,8.253375 -0.05206,0.456942 -0.279097,1.113502 0.278134,2.040637 0.0075,0.0085 0.01701,0.01703 0.02365,0.0265 0.52695,0.581826 0.335848,2.198634 -0.395448,2.198634"
       style="fill:#973626;fill-opacity:1;fill-rule:nonzero;stroke:none;stroke-width:0.00946053" />
    <path
       id="path26"
       d="m 79.693628,62.627977 c 0,0.885508 0.455994,1.603558 1.018898,1.603558 0.562895,0 1.019842,-0.71805 1.019842,-1.603558 0,-0.885507 -0.456947,-1.603564 -1.019842,-1.603564 -0.562904,0 -1.018898,0.718057 -1.018898,1.603564"
       style="fill:#261310;fill-opacity:1;fill-rule:nonzero;stroke:none;stroke-width:0.00946053" />
    <path
       id="path27"
       d="m 70.985197,82.65783 c -1.33394,1.652758 -1.980092,3.408633 -2.542052,5.378319 -2.927089,-1.515578 -7.440709,-4.529709 -10.997874,-9.922214 7.644111,2.491908 11.51916,3.977209 13.539926,4.543895"
       style="fill:#802b20;fill-opacity:1;fill-rule:nonzero;stroke:none;stroke-width:0.00946053" />
    <path
       id="path28"
       d="m 82.576248,59.289348 c 0.313145,0.180695 1.647086,-1.407731 0.278144,-1.762502 -2.503256,-0.648987 -4.550519,-0.243127 -6.583595,1.112561 -0.556278,0.370858 -1.669778,1.577075 -1.669778,1.577075 0.166494,0.264892 4.350902,-3.025479 7.975229,-0.927134"
       style="fill:#261310;fill-opacity:1;fill-rule:nonzero;stroke:none;stroke-width:0.00946053" />
    <path
       id="path30"
       d="m 73.135577,71.292884 c -0.966867,1.260143 -3.312135,1.084184 -5.238299,-0.393556 -1.927107,-1.477742 -2.705723,-3.697185 -1.7398,-4.95638 0.965924,-1.260142 3.311191,-1.084178 5.238299,0.393557 1.927117,1.477734 2.705723,3.697178 1.7398,4.956379"
       style="fill:#802b20;fill-opacity:1;fill-rule:nonzero;stroke:none;stroke-width:0.00946053" />
    <path
       id="path31"
       d="m 76.456226,62.997881 c 0,0 3.616766,-1.483412 5.841888,-1.576122 0.58655,-0.02458 0.741707,-1.205277 0.741707,-1.205277 0,0 -1.854273,0.556278 -2.317837,0.648994 -1.455029,0.29138 -4.265758,1.761548 -4.265758,1.761548 v 0.370857"
       style="fill:#261310;fill-opacity:1;fill-rule:nonzero;stroke:none;stroke-width:0.00946053" />
    <path
       id="path32"
       d="m 83.132526,75.33159 c 0.92809,1.298927 0.09367,2.318778 -1.019851,2.318778 -0.0075,0 -0.01608,0.01133 -0.02645,0.03124 -1.086069,-0.865638 -2.29134,-1.978199 -3.868422,-3.091706 2.782353,-0.278142 3.52406,-1.112561 5.310209,-1.456925 0.526949,0.581825 0.335847,2.198634 -0.395449,2.198634"
       style="fill:#64101e;fill-opacity:1;fill-rule:nonzero;stroke:none;stroke-width:0.00946053" />
    <path
       id="path33"
       d="m 83.782472,47.511923 c -4.800288,0.326388 -13.681839,1.396374 -16.692184,4.358468 -2.981017,2.931823 0.185429,7.882524 -5.286544,9.736788 -1.336772,0.453165 -2.770997,3.147526 -3.080358,6.270446 -0.08421,0.860914 -5.946892,6.565621 -6.656439,7.175829 -10.20035,-2.59598 -28.098749,-53.877789 22.626777,-42.194018 4.730275,-3.431339 20.772513,5.750119 9.088748,14.652487"
       style="fill:#261210;fill-opacity:1;fill-rule:nonzero;stroke:none;stroke-width:0.00946053" />
    <path
       id="path34"
       d="m 61.500057,70.004359 c -0.782382,0.289491 -3.265777,0.491003 -4.425644,0.319762 0.649002,-1.11256 1.564773,-1.585582 1.648973,-2.446496 0.983896,-1.923322 1.858049,-3.906257 2.7095,-5.992305 1.830617,2.006582 1.631,7.540056 0.0672,8.119039"
       style="fill:#802b20;fill-opacity:1;fill-rule:nonzero;stroke:none;stroke-width:0.00946053" />
    <path
       id="path35"
       d="m 75.250955,32.488579 c 0,0 -12.70456,21.328792 -15.765047,26.33626 -3.060488,5.008402 -7.60438,16.784892 -7.60438,16.784892 L 49.74912,74.775312 c 0,0 1.483415,-33.847927 17.526597,-45.439932 2.503256,0.742657 5.934602,1.39165 7.975238,3.153199"
       style="fill:#86113d;fill-opacity:1;fill-rule:nonzero;stroke:none;stroke-width:0.00946053" />
    <path
       id="path36"
       d="m 60.303301,60.174855 c -5.641327,-2.267696 -5.685787,4.724596 -3.485265,7.812513 1.229871,1.724663 4.202373,2.068079 5.311144,1.598833 1.726556,-0.732248 0.873208,-8.326221 -1.825879,-9.411346"
       style="fill:#973626;fill-opacity:1;fill-rule:nonzero;stroke:none;stroke-width:0.00946053" />
    <path
       id="path37"
       d="m 61.651429,66.256092 c 0.269619,-0.13529 0.915771,-0.972546 -0.02832,-1.207165 -2.297012,-0.57047 -0.29706,-1.375564 -1.208112,-1.357589 -1.010383,0.01984 -1.026458,0.549658 -0.924285,1.185407 0.103117,0.635749 1.411504,1.756823 2.160782,1.379347"
       style="fill:#802b20;fill-opacity:1;fill-rule:nonzero;stroke:none;stroke-width:0.00946053" />
    <path
       id="path38"
       d="m 61.308955,62.628918 c 0.202458,0.053 0.377475,-1.109718 -0.699135,-1.62721 -3.616766,-1.73979 -5.098283,1.815472 -3.909097,4.887316 0.577092,1.491926 2.533538,2.695302 2.72464,2.477715 -1.692499,-1.758718 -4.078441,-4.782303 -1.325426,-6.608189 1.981036,-1.31312 2.908163,0.791844 3.209018,0.870368"
       style="fill:#802b20;fill-opacity:1;fill-rule:nonzero;stroke:none;stroke-width:0.00946053" />
    <path
       id="path39"
       d="m 70.892483,34.900073 c 0,0 -17.434826,31.899999 -18.269248,34.404204 -0.834431,2.504204 -1.3907,3.338624 -1.20528,1.854263 0.185429,-1.483406 9.017791,-21.673149 10.014931,-22.904914 1.577073,-1.947921 9.669616,-17.413069 10.850297,-16.970312 0.741697,0.278135 -1.112566,3.153197 -1.3907,3.616759"
       style="fill:#710f35;fill-opacity:1;fill-rule:nonzero;stroke:none;stroke-width:0.00946053" />
    <path
       id="path40"
       d="m 62.731815,40.83467 c -4.543893,7.233536 -10.479439,24.574706 -11.31386,27.07891 -0.834422,2.503258 -0.18542,-0.742656 0,-2.226062 0.185429,-1.483419 5.471029,-17.804744 6.769967,-20.77251 1.003766,-2.295131 8.926965,-14.90887 10.107646,-14.466113 0.741698,0.278135 -5.276151,9.927891 -5.563753,10.385775"
       style="fill:#710f35;fill-opacity:1;fill-rule:nonzero;stroke:none;stroke-width:0.00946053" />
    <path
       id="path41"
       d="m 77.156305,106.34986 c -9.33661,0.95078 -30.653092,-4.68108 -32.364508,-11.004498 0.262994,-0.472081 0.532623,-0.94038 0.807926,-1.404894 0.69063,-1.16269 1.424757,-2.297014 2.201466,-3.400114 0.32166,-0.456943 1.660329,-1.219463 2.889246,-1.879812 1.214738,-0.312196 2.45502,-0.504247 3.705704,-0.594115 9.021568,3.065212 16.410256,9.174826 21.616384,16.580533 0.394505,0.56007 0.775765,1.1277 1.143782,1.7029"
       style="fill:#710f35;fill-opacity:1;fill-rule:nonzero;stroke:none;stroke-width:0.00946053" />
    <path
       id="path42"
       d="m 76.012523,104.64696 c -14.579637,-1.58747 -26.1565,-3.49756 -30.4128,-10.706492 0.69063,-1.16269 1.424757,-2.297014 2.201466,-3.400114 0.553446,-0.786173 4.119116,-2.478664 4.950706,-2.994261 9.768948,2.856139 17.742298,9.250515 23.260628,17.100867"
       style="fill:#973626;fill-opacity:1;fill-rule:nonzero;stroke:none;stroke-width:0.00946053" />
    <path
       id="path43"
       d="m 61.949433,68.191716 c 0.421945,-0.03501 0.861862,0.0076 1.289471,0.174076 0.21286,0.08326 0.421935,0.202459 0.607364,0.363286 0.187318,0.15893 0.34626,0.365173 0.460732,0.596009 0.227057,0.468299 0.249759,1.020799 0.10407,1.504223 -0.07,0.244087 -0.178812,0.475871 -0.325445,0.687791 -0.145698,0.211909 -0.330174,0.404907 -0.558175,0.559119 -0.05682,0.03975 -0.117305,0.07473 -0.178803,0.10879 -0.03122,0.01511 -0.06524,0.0331 -0.0946,0.04539 l -0.08701,0.03783 c -0.118257,0.0473 -0.239347,0.0861 -0.36139,0.115421 -0.24503,0.0615 -0.496677,0.07853 -0.740763,0.06906 -0.489107,-0.02458 -0.950783,-0.167452 -1.355689,-0.395452 -0.403019,-0.227995 -0.763475,-0.535467 -1.014169,-0.93659 -0.122996,-0.199618 -0.22044,-0.426671 -0.240301,-0.673588 -0.01131,-0.12204 5.98e-4,-0.247876 0.03879,-0.363285 0.04066,-0.115421 0.104061,-0.217598 0.185429,-0.294227 l 0.07757,0.04923 c -0.06056,0.192999 -0.02645,0.371799 0.04823,0.524117 0.03879,0.07663 0.08608,0.148529 0.142857,0.215698 0.05486,0.06717 0.117313,0.129612 0.184485,0.189215 0.268676,0.23462 0.596953,0.409643 0.931865,0.529783 0.336792,0.119204 0.685892,0.182595 1.017001,0.172187 0.165559,-5.99e-4 0.325445,-0.02932 0.47776,-0.06717 0.0757,-0.01984 0.150418,-0.04538 0.221384,-0.07568 l 0.09743,-0.04449 c 0.02832,-0.01511 0.05683,-0.03028 0.08514,-0.04923 0.112584,-0.07285 0.218543,-0.178801 0.312201,-0.298005 0.09271,-0.120152 0.169344,-0.259226 0.227048,-0.403972 0.112585,-0.292326 0.145698,-0.610201 0.0615,-0.903476 -0.07851,-0.295169 -0.28477,-0.572363 -0.579933,-0.795628 -0.293275,-0.227052 -0.660339,-0.395457 -1.047282,-0.548717 l 0.01327,-0.09177"
       style="fill:#d47a19;fill-opacity:1;fill-rule:nonzero;stroke:none;stroke-width:0.00946053" />
  </g>
</svg>
