<?xml version="1.0" encoding="UTF-8" standalone="no"?>
<!-- Created with Inkscape (http://www.inkscape.org/) -->

<svg
   width="60.366497mm"
   height="74.24366mm"
   viewBox="0 0 60.366498 74.24366"
   version="1.1"
   id="svg1"
   xmlns="http://www.w3.org/2000/svg"
   xmlns:svg="http://www.w3.org/2000/svg">
  <defs
     id="defs1" />
  <g
     id="layer1"
     transform="translate(-27.34228,-20.50463)">
    <path
       id="path45"
       d="m 75.778397,76.86391 c -1.12277,0.6109 -2.05032,1.43477 -2.81535,2.38474 -1.31707,1.63185 -2.16055,3.63641 -2.7154,5.58119 -0.91541,3.20954 -1.03965,6.25562 -1.18443,7.18877 -0.64079,4.15111 -10.02934,1.9728 -15.44801,-1.00228 -2.43424,-1.33575 -4.06796,-2.8331 -3.74851,-3.98951 -9e-4,-0.0121 4.48645,-16.0234 4.48645,-16.0234 0,0 19.0975,3.21328 21.42525,5.86049"
       style="fill:#f68556;fill-opacity:1;fill-rule:nonzero;stroke:none;stroke-width:0.0093409" />
    <path
       id="path46"
       d="m 86.980027,64.7039 c 1.17041,0.87899 1.19003,2.86673 -1.89247,3.38982 -3.87741,0.48947 -0.57913,-7.79032 -0.57913,-7.79032 0.0299,-0.16346 0.77062,3.12454 2.4716,4.4005"
       style="fill:#f68556;fill-opacity:1;fill-rule:nonzero;stroke:none;stroke-width:0.0093409" />
    <path
       id="path47"
       d="m 84.751287,72.28593 c 0.91541,1.28157 0.0915,2.28852 -1.00695,2.28852 -0.007,0 -0.0168,0.0112 -0.0262,0.0318 -0.18963,0.36523 -0.86591,3.84565 -1.89621,4.82085 -1.60758,1.5235 -5.16646,1.30305 -11.84615,-0.6931 l -13.27997,-3.25624 c 0,0 -12.1516,-14.81283 -10.37683,-32.78849 0.72112,-7.30926 7.56521,-12.14132 14.87448,-11.41927 l 11.85642,1.16949 c 5.70357,0.56326 10.01066,9.06069 11.75181,14.24396 0.57073,1.69818 0.86497,9.02987 0.86497,9.02987 -0.0196,0.51935 -0.98453,3.7074 -1.00695,4.21181 -0.12424,2.88448 0.45117,5.79604 0.18308,8.14902 -0.0514,0.45023 -0.27462,1.09849 0.27462,2.0139 0.008,0.008 0.0177,0.0177 0.0243,0.0271 0.52029,0.57354 0.3316,2.17084 -0.39045,2.17084"
       style="fill:#f68556;fill-opacity:1;fill-rule:nonzero;stroke:none;stroke-width:0.0093409" />
    <path
       id="path48"
       d="m 84.842827,46.64884 c -4.73772,-0.25313 -8.2172,0.14853 -12.35243,1.23395 -3.54768,0.93128 -6.38638,3.58691 -7.57922,7.05519 -0.39979,1.15921 -0.8575,2.37539 -1.36284,3.6112 -1.18629,2.90876 -2.62946,5.924 -4.14643,8.54974 -1.99428,3.4496 -4.11841,6.22572 -5.96417,7.20091 -8.69827,-1.09849 -21.79143,-4.19688 -24.26396,-8.24056 -7.06268,-11.54537 8.23401,-24.81414 13.1847,-30.3066 5.88571,-6.53117 17.12189,-4.85261 29.75735,-4.57799 8.48062,0.18402 19.0452,6.13418 12.727,15.47416"
       style="fill:#fbd049;fill-opacity:1;fill-rule:nonzero;stroke:none;stroke-width:0.0093409" />
    <path
       id="path49"
       d="m 81.357727,59.66728 c -0.0654,0.87151 0.27182,1.60758 0.75288,1.64401 0.48106,0.0355 0.92288,-0.64172 0.98827,-1.51417 0.0654,-0.87151 -0.27089,-1.60757 -0.75195,-1.644 -0.48105,-0.0355 -0.92381,0.64172 -0.9892,1.51416"
       style="fill:#261310;fill-opacity:1;fill-rule:nonzero;stroke:none;stroke-width:0.0093409" />
    <path
       id="path50"
       d="m 72.756617,79.5186 c -1.31614,1.63185 -1.95412,3.36646 -2.50897,5.31124 -2.89008,-1.49735 -7.34756,-4.47336 -10.85881,-9.79768 7.54745,2.46039 11.37256,3.92691 13.36778,4.48644"
       style="fill:#e4784f;fill-opacity:1;fill-rule:nonzero;stroke:none;stroke-width:0.0093409" />
    <path
       id="path51"
       d="m 84.202037,56.4456 c 0.30919,0.17841 1.3012,-0.77716 0,-1.28157 -2.25396,-0.87431 -3.77092,-0.64172 -5.78576,0.68655 -0.34748,0.23166 -1.38993,0.97707 -1.22553,1.23768 l 0.0654,0.17654 c 0.1644,0.26248 3.36646,-2.89101 6.9459,-0.8192"
       style="fill:#261310;fill-opacity:1;fill-rule:nonzero;stroke:none;stroke-width:0.0093409" />
    <path
       id="path53"
       d="m 63.392347,67.02513 c -1.00788,0.3727 -2.40622,0.87617 -3.99044,0.0738 1.51697,-2.62574 2.96014,-5.64098 4.14643,-8.54974 1.80747,1.98214 1.38713,7.90521 -0.15599,8.47595"
       style="fill:#e4784f;fill-opacity:1;fill-rule:nonzero;stroke:none;stroke-width:0.0093409" />
    <path
       id="path54"
       d="m 62.509627,57.40117 c -5.40932,-2.60424 -5.91093,4.28188 -3.94466,7.46807 1.09849,1.78038 4.00445,2.31281 5.12722,1.92236 1.74956,-0.6081 1.40581,-8.14528 -1.18256,-9.39043"
       style="fill:#f68556;fill-opacity:1;fill-rule:nonzero;stroke:none;stroke-width:0.0093409" />
    <path
       id="path55"
       d="m 63.531527,63.75487 c 0,0 0.96491,-0.89767 0.0504,-1.19097 -2.22501,-0.71271 -0.2027,-1.37405 -1.1013,-1.41702 -0.99573,-0.0467 -1.04711,0.47452 -0.98733,1.10783 0.0598,0.63239 1.21152,1.54219 2.03819,1.50016"
       style="fill:#e4784f;fill-opacity:1;fill-rule:nonzero;stroke:none;stroke-width:0.0093409" />
    <path
       id="path56"
       d="m 63.051407,59.92509 c 0.18495,0.0616 0.4194,-1.00882 -0.54925,-1.55713 -3.25531,-1.84016 -4.85261,1.37405 -3.93719,4.30336 0.44462,1.42263 1.91488,2.93772 2.10544,2.74716 -1.00695,-1.64773 -3.22169,-4.9731 -0.54925,-6.50034 1.92329,-1.09943 2.65563,0.91541 2.93025,1.00695"
       style="fill:#e4784f;fill-opacity:1;fill-rule:nonzero;stroke:none;stroke-width:0.0093409" />
    <path
       id="path57"
       d="m 74.879807,68.29829 c -0.95371,1.24421 -3.26932,1.06954 -5.17207,-0.38952 -1.90181,-1.45905 -2.6715,-3.64949 -1.71779,-4.8937 0.95464,-1.24421 3.27025,-1.06954 5.17207,0.38952 1.90274,1.45811 2.67243,3.64949 1.71779,4.8937"
       style="fill:#e4784f;fill-opacity:1;fill-rule:nonzero;stroke:none;stroke-width:0.0093409" />
    <path
       id="path58"
       d="m 78.159397,60.10817 c 0,0 4.94415,-1.55712 5.49339,-1.74021 0.54925,-0.18308 0.45771,-0.54925 0.45771,-0.54925 0,0 -0.82387,0 -1.00695,0 -1.46465,0 -4.94415,1.9233 -4.94415,1.9233 v 0.36616"
       style="fill:#261310;fill-opacity:1;fill-rule:nonzero;stroke:none;stroke-width:0.0093409" />
    <path
       id="path59"
       d="m 84.751287,72.28593 c 0.91541,1.28157 0.0915,2.28852 -1.00695,2.28852 -0.007,0 -0.0168,0.0112 -0.0262,0.0318 -2.54634,-1.02563 -3.08718,-1.58796 -3.8195,-3.60279 2.93024,0.36617 3.47948,-0.54925 5.24305,-0.88832 0.52029,0.57353 0.3316,2.17083 -0.39045,2.17083"
       style="fill:#f04059;fill-opacity:1;fill-rule:nonzero;stroke:none;stroke-width:0.0093409" />
    <path
       id="path60"
       d="m 49.722857,36.51862 c -5.50087,2.37633 -11.8994,4.00632 -14.02072,-0.90794 -2.12226,-4.91332 1.17602,-11.225906 6.67782,-13.602235 5.50086,-2.375395 12.24874,-2.250227 14.37006,2.663096 2.12226,4.914249 -1.5263,9.471689 -7.02716,11.847079"
       style="fill:#fbd049;fill-opacity:1;fill-rule:nonzero;stroke:none;stroke-width:0.0093409" />
    <path
       id="path61"
       d="m 69.094977,93.25348 0.54924,-4.12028 c 0,0 -4.94507,2.47161 -10.80463,1.09849 -4.91053,-1.1508 -8.97289,-5.21876 -8.97289,-5.21876 l -1.64866,4.57798 c 0,0 9.15689,8.51518 20.87694,3.66257"
       style="fill:#f14a65;fill-opacity:1;fill-rule:nonzero;stroke:none;stroke-width:0.0093409" />
  </g>
</svg>
