<?xml version="1.0" encoding="UTF-8" standalone="no"?>
<!-- Created with Inkscape (http://www.inkscape.org/) -->

<svg
   width="48.995625mm"
   height="67.085182mm"
   viewBox="0 0 48.995625 67.085182"
   version="1.1"
   id="svg1"
   xmlns="http://www.w3.org/2000/svg"
   xmlns:svg="http://www.w3.org/2000/svg">
  <defs
     id="defs1" />
  <g
     id="layer1"
     transform="translate(-33.418761,-28.952975)">
    <path
       id="path102"
       d="m 70.353323,78.691092 c -1.115744,0.60722 -2.037713,1.42613 -2.798589,2.37038 -1.308672,1.62203 -2.14782,3.61453 -2.699328,5.5476 -0.909162,3.19021 -1.032931,6.21795 -1.176748,7.14549 -0.63683,4.12611 -9.968683,1.96092 -15.35556,-0.99626 -2.419583,-1.3277 -4.043287,-2.81603 -3.725657,-3.96548 -8.63e-4,-0.0121 4.459522,-15.92694 4.459522,-15.92694 0,0 18.982898,3.19393 21.29636,5.82521"
       style="fill:#f68d54;fill-opacity:1;fill-rule:nonzero;stroke:none;stroke-width:0.00928467" />
    <path
       id="path103"
       d="m 81.911641,67.223592 c 1.07451,1.61182 0.516314,2.57371 -2.54828,3.09458 -3.853233,0.48558 -0.272962,-8.91886 -0.272962,-8.91886 0.04272,-0.14206 1.911147,4.45942 2.821242,5.82428"
       style="fill:#f68d54;fill-opacity:1;fill-rule:nonzero;stroke:none;stroke-width:0.00928467" />
    <path
       id="path104"
       d="m 79.272376,74.140662 c 0.910086,1.27387 0.09098,2.27475 -1.001079,2.27475 -0.0069,0 -0.0164,0.0111 -0.02649,0.0316 -0.18839,0.36304 -0.860042,3.82251 -1.884792,4.79183 -1.597246,1.51432 -5.134799,1.29521 -11.773995,-0.68893 l -13.200119,-3.23664 c 0,0 -14.533032,-16.41438 -10.315189,-32.59108 2.343546,-8.9885 15.631042,-11.80918 26.279265,-8.89751 5.494767,1.5032 11.101411,5.58752 12.832453,10.73959 0.567007,1.68796 0,11.10355 0,11.10355 -0.02002,0.51623 -0.979262,3.68509 -1.001173,4.18646 -0.123761,2.86711 0.448725,5.76207 0.182072,8.09995 -0.051,0.44753 -0.272962,1.09189 0.273065,2.00178 0.0078,0.009 0.01726,0.0176 0.02365,0.0269 0.516876,0.57007 0.329419,2.15775 -0.38773,2.15775"
       style="fill:#f68d54;fill-opacity:1;fill-rule:nonzero;stroke:none;stroke-width:0.00928467" />
    <path
       id="path105"
       d="m 75.881789,61.831972 c -0.05523,0.73721 0.28746,1.36392 0.765338,1.40013 0.477886,0.0353 0.91018,-0.53294 0.965325,-1.27107 0.05532,-0.7372 -0.249756,-0.96932 -0.727729,-1.00553 -0.477877,-0.0353 -0.947686,0.13834 -1.002934,0.87647"
       style="fill:#151516;fill-opacity:1;fill-rule:nonzero;stroke:none;stroke-width:0.00928467" />
    <path
       id="path106"
       d="m 67.350009,81.330732 c -1.308673,1.62111 -1.943095,3.34527 -2.494603,5.27834 -2.872218,-1.48834 -7.302684,-4.44644 -10.792885,-9.7387 7.50193,2.44558 11.304376,3.90421 13.287488,4.46036"
       style="fill:#f4694c;fill-opacity:1;fill-rule:nonzero;stroke:none;stroke-width:0.00928467" />
    <path
       id="path107"
       d="m 78.72634,58.395722 c 0.335641,0.1142 1.020479,-1.0074 -0.36405,-1.09189 -4.459531,-0.27297 -7.280867,2.7297 -7.280867,2.7297 0.163233,0.2609 3.913495,-2.91168 7.644917,-1.63781"
       style="fill:#151516;fill-opacity:1;fill-rule:nonzero;stroke:none;stroke-width:0.00928467" />
    <path
       id="path109"
       d="m 68.7337,70.329312 c -0.999215,1.30357 -3.342199,1.18379 -5.2333,-0.26647 -1.891014,-1.45026 -2.614108,-3.68138 -1.614893,-4.98494 0.999128,-1.30264 3.342113,-1.1838 5.233222,0.26646 1.891109,1.45027 2.614195,3.6823 1.614971,4.98495"
       style="fill:#f4694c;fill-opacity:1;fill-rule:nonzero;stroke:none;stroke-width:0.00928467" />
    <path
       id="path110"
       d="m 72.992682,62.673162 c 0,0 2.548272,-1.27385 4.914565,-1.27385 0.575559,0 0.728014,-1.36578 0.728014,-1.36578 0,0 -0.729498,0.61464 -0.910086,0.63693 -2.91233,0.36488 -4.823486,1.72973 -4.823486,1.72973 l 0.09099,0.27297"
       style="fill:#151516;fill-opacity:1;fill-rule:nonzero;stroke:none;stroke-width:0.00928467" />
    <path
       id="path111"
       d="m 79.272376,74.140662 c 0.910086,1.27387 0.09098,2.27475 -1.001079,2.27475 -0.0069,0 -0.0164,0.0111 -0.02649,0.0316 -1.065691,-0.85047 -1.520742,-1.85136 -3.067943,-2.94324 2.730352,-0.2739 2.730352,-1.18379 4.483202,-1.52082 0.516884,0.57007 0.329427,2.15775 -0.387721,2.15775"
       style="fill:#f4694c;fill-opacity:1;fill-rule:nonzero;stroke:none;stroke-width:0.00928467" />
    <path
       id="path112"
       d="m 80.448278,49.147242 c -15.134023,-1.29986 -13.401229,6.31544 -22.468922,9.84176 -6.684969,2.59972 -8.063094,16.48588 -9.897841,17.45519 -2.042632,-3.62102 -1.168291,-2.09461 -3.528181,-6.12788 -17.083807,-3.52818 -12.4164,-31.19002 -0.03676,-33.05345 7.613445,-17.54805 32.534261,-2.1754 34.827667,-0.0993 3.213338,2.90889 4.314869,7.12599 1.104041,11.98373"
       style="fill:#151516;fill-opacity:1;fill-rule:nonzero;stroke:none;stroke-width:0.00928467" />
    <path
       id="path113"
       d="m 58.066906,69.225372 c -0.768117,0.28411 -2.593768,0.0771 -3.731414,-0.0901 0.36405,-1.00182 0.898288,-1.46605 0.981109,-2.31002 0.965697,-1.88758 1.823883,-3.83458 2.65932,-5.88092 1.796586,1.96928 1.625465,7.71371 0.09099,8.28101"
       style="fill:#f4694c;fill-opacity:1;fill-rule:nonzero;stroke:none;stroke-width:0.00928467" />
    <path
       id="path114"
       d="m 56.867142,59.264762 c -5.536829,-2.22553 -5.58028,4.63676 -3.420481,7.66729 1.206832,1.69352 4.124262,2.03055 5.212053,1.56911 1.694918,-0.71864 0.857625,-8.17145 -1.791572,-9.2364"
       style="fill:#f68d54;fill-opacity:1;fill-rule:nonzero;stroke:none;stroke-width:0.00928467" />
    <path
       id="path115"
       d="m 58.190485,65.232952 c 0.264617,-0.13277 0.898021,-0.95446 -0.02839,-1.18473 -2.253761,-0.55986 -0.291637,-1.34906 -1.185559,-1.33234 -0.991241,0.0195 -1.007301,0.53943 -0.906565,1.16336 0.100745,0.62394 1.38509,1.72416 2.120533,1.35371"
       style="fill:#f4694c;fill-opacity:1;fill-rule:nonzero;stroke:none;stroke-width:0.00928467" />
    <path
       id="path116"
       d="m 57.853826,61.673202 c 0.19897,0.0519 0.370367,-1.08909 -0.685856,-1.59696 -3.549169,-1.70652 -5.003418,1.78173 -3.836802,4.79647 0.566454,1.46419 2.486896,2.64613 2.673982,2.43165 -1.660752,-1.72509 -4.002805,-4.69341 -1.300413,-6.48442 1.943751,-1.28872 2.854113,0.77621 3.149089,0.85326"
       style="fill:#f4694c;fill-opacity:1;fill-rule:nonzero;stroke:none;stroke-width:0.00928467" />
  </g>
</svg>
