<?xml version="1.0" encoding="UTF-8" standalone="no"?>
<!-- Created with Inkscape (http://www.inkscape.org/) -->

<svg
   width="56.278713mm"
   height="66.422394mm"
   viewBox="0 0 56.278714 66.422394"
   version="1.1"
   id="svg1"
   xmlns="http://www.w3.org/2000/svg"
   xmlns:svg="http://www.w3.org/2000/svg">
  <defs
     id="defs1" />
  <g
     id="layer1"
     transform="translate(-33.31204,-29.155824)">
    <path
       id="path83"
       d="m 85.069492,41.366286 c 0,0 2.983579,-0.101594 4.373321,8.746663 1.767558,11.259395 -12.752616,38.245494 -19.587418,35.872296 -0.439514,-0.152825 -17.074676,-6.189296 -17.074676,-6.189296 0,0 23.646538,-43.682023 32.288773,-38.429663"
       style="fill:#a21b21;fill-opacity:1;fill-rule:nonzero;stroke:none;stroke-width:0.00949276" />
    <path
       id="path85"
       d="m 75.484613,77.842337 c -1.140073,0.620828 -2.082706,1.458087 -2.86112,2.423502 -1.337533,1.65839 -2.195687,3.695554 -2.759556,5.671947 -0.929342,3.261728 -1.056551,6.357319 -1.203688,7.30565 -0.650256,4.21859 -10.191654,2.004872 -15.699267,-1.018582 -2.473917,-1.357461 -4.134018,-2.879162 -3.809266,-4.05436 -8.56e-4,-0.0133 4.559571,-16.28393 4.559571,-16.28393 0,0 19.40868,3.265509 21.773326,5.955773"
       style="fill:#f8a393;fill-opacity:1;fill-rule:nonzero;stroke:none;stroke-width:0.00949276" />
    <path
       id="path86"
       d="m 86.930072,65.931729 c 1.098322,1.647942 0.899914,2.817463 -2.232698,3.35001 -3.940463,0.496463 -0.279086,-9.118781 -0.279086,-9.118781 0.04369,-0.145242 1.581494,4.373331 2.511784,5.768771"
       style="fill:#f8a393;fill-opacity:1;fill-rule:nonzero;stroke:none;stroke-width:0.00949276" />
    <path
       id="path87"
       d="m 84.604342,73.18991 c 0.93029,1.302418 0.09304,2.32574 -1.02427,2.32574 -0.0072,0 -0.01618,0.01144 -0.02658,0.03226 -0.192699,0.37117 -0.879028,3.907234 -1.927038,4.899232 C 79.9937,81.994469 76.376,81.771394 69.588657,79.742771 L 56.092368,76.433585 c 0,0 -14.858681,-16.782309 -10.546297,-33.321596 2.396073,-9.189968 15.981393,-12.07388 26.868577,-9.096936 5.617842,1.536879 11.070486,5.991847 12.840898,11.259394 0.579057,1.725786 0.279086,11.07334 0.279086,11.07334 -0.02092,0.526849 -1.001488,3.767691 -1.023322,4.2803 -0.127199,2.931381 0.458505,5.890283 0.186064,8.281513 -0.05223,0.457546 -0.279086,1.116343 0.279086,2.046644 0.0072,0.0083 0.01711,0.01803 0.0237,0.02751 0.528755,0.58285 0.337002,2.206115 -0.395848,2.206115"
       style="fill:#f8a393;fill-opacity:1;fill-rule:nonzero;stroke:none;stroke-width:0.00949276" />
    <path
       id="path88"
       d="m 80.981893,60.352823 c -0.06646,0.886623 0.314211,1.637506 0.851497,1.67737 0.536349,0.03988 1.025228,-0.645506 1.091676,-1.532138 0.06646,-0.885676 -0.315159,-1.636557 -0.851497,-1.676422 -0.536349,-0.0408 -1.025228,0.645506 -1.091676,1.53119"
       style="fill:#261310;fill-opacity:1;fill-rule:nonzero;stroke:none;stroke-width:0.00949276" />
    <path
       id="path89"
       d="m 72.414648,80.540185 c -1.338481,1.65839 -1.986842,3.421208 -2.550711,5.397601 -2.937069,-1.521701 -7.46646,-4.546104 -11.034897,-9.956986 7.669709,2.500397 11.557953,3.991713 13.585608,4.559385"
       style="fill:#f57f78;fill-opacity:1;fill-rule:nonzero;stroke:none;stroke-width:0.00949276" />
    <path
       id="path90"
       d="m 84.045212,57.092044 c 0.314211,0.181314 1.373606,-0.946436 0,-1.302418 -2.511783,-0.652152 -4.099934,-0.430014 -6.140879,0.9303 -0.558182,0.372118 -1.209386,1.023322 -1.209386,1.023322 0.166126,0.266753 3.713586,-2.756713 7.350265,-0.651204"
       style="fill:#d62524;fill-opacity:1;fill-rule:nonzero;stroke:none;stroke-width:0.00949276" />
    <path
       id="path92"
       d="m 74.572365,69.137446 c -0.970165,1.264439 -3.323426,1.086926 -5.256162,-0.395848 -1.933684,-1.482774 -2.714931,-3.708836 -1.745725,-4.973275 0.969207,-1.264438 3.322479,-1.086926 5.256163,0.395848 1.933684,1.481826 2.714931,3.708836 1.745724,4.973275"
       style="fill:#f57f78;fill-opacity:1;fill-rule:nonzero;stroke:none;stroke-width:0.00949276" />
    <path
       id="path93"
       d="m 77.904333,60.814172 c 0,0 3.536064,-1.861538 5.582707,-1.768506 0.588557,0.02751 0.46514,-0.558183 0.46514,-0.558183 0,0 -1.302408,-0.09304 -1.488462,-0.09304 -1.488471,0 -4.559385,2.047602 -4.559385,2.047602 v 0.372119"
       style="fill:#261310;fill-opacity:1;fill-rule:nonzero;stroke:none;stroke-width:0.00949276" />
    <path
       id="path94"
       d="m 84.604342,73.18991 c 0.93029,1.302418 0.09304,2.32574 -1.02427,2.32574 -0.0072,0 -0.01618,0.01144 -0.02658,0.03226 -1.08977,-0.869529 -2.299156,-1.985883 -3.881607,-3.102237 2.791837,-0.280034 3.536074,-1.117301 5.328309,-1.461887 0.528754,0.582848 0.337003,2.206113 -0.395848,2.206113"
       style="fill:#d62524;fill-opacity:1;fill-rule:nonzero;stroke:none;stroke-width:0.00949276" />
    <path
       id="path95"
       d="m 81.998569,50.299003 c -5.479238,1.802683 -15.911813,6.048805 -19.819808,8.932717 -1.139795,0.842008 -1.757687,3.344302 -2.06753,6.478829 -0.08469,0.862894 -0.147043,1.774204 -0.189762,2.712088 -0.33689,7.326536 0.586001,20.959128 0.67551,21.237277 1.767939,5.489675 -26.984586,2.790879 -26.984586,2.790879 0,0 -3.908078,-56.853278 16.469901,-55.736924 6.79266,-14.236338 25.510539,-4.803357 33.869886,-0.372118 6.10767,3.23704 5.118526,11.631523 -1.953611,13.957252"
       style="fill:#ae2122;fill-opacity:1;fill-rule:nonzero;stroke:none;stroke-width:0.00949276" />
    <path
       id="path96"
       d="m 62.897176,67.843579 c -0.785337,0.290482 -1.812647,0.749925 -2.975707,0.579058 0.04276,-0.937884 0.105086,-1.849194 0.189762,-2.712088 0.987249,-1.929892 1.864764,-3.920525 2.718929,-6.012731 1.836469,2.013424 1.636176,7.565746 0.06698,8.145761"
       style="fill:#f57f78;fill-opacity:1;fill-rule:nonzero;stroke:none;stroke-width:0.00949276" />
    <path
       id="path97"
       d="m 61.696527,57.980573 c -5.661015,-2.275427 -5.705352,4.740689 -3.497136,7.839145 1.233868,1.731484 4.216592,2.07607 5.328865,1.604285 1.732628,-0.734747 0.876371,-8.354607 -1.831729,-9.44343"
       style="fill:#f8a393;fill-opacity:1;fill-rule:nonzero;stroke:none;stroke-width:0.00949276" />
    <path
       id="path98"
       d="m 63.049443,64.082535 c 0.270638,-0.13574 0.918523,-0.975853 -0.02895,-1.211282 -2.304277,-0.572412 -0.298261,-1.379294 -1.212229,-1.36221 -1.013359,0.01989 -1.029876,0.551526 -0.92687,1.189437 0.103037,0.637923 1.416223,1.762819 2.168052,1.384055"
       style="fill:#f57f78;fill-opacity:1;fill-rule:nonzero;stroke:none;stroke-width:0.00949276" />
    <path
       id="path99"
       d="m 62.705331,60.442992 c 0.203333,0.05316 0.378661,-1.1135 -0.701238,-1.632756 -3.628808,-1.744776 -5.115662,1.821674 -3.922895,4.903983 0.57916,1.497013 2.542746,2.705441 2.734023,2.486158 -1.698069,-1.763756 -4.092535,-4.798607 -1.329558,-6.629768 1.987315,-1.317596 2.917986,0.793601 3.219668,0.872383"
       style="fill:#f57f78;fill-opacity:1;fill-rule:nonzero;stroke:none;stroke-width:0.00949276" />
    <path
       id="path100"
       d="m 62.737128,66.536421 c 0,0.231618 -0.187475,0.41863 -0.418721,0.41863 -0.231246,0 -0.418732,-0.187012 -0.418732,-0.41863 0,-0.230678 0.187486,-0.418628 0.418732,-0.418628 0.231246,0 0.418721,0.18795 0.418721,0.418628"
       style="fill:#151516;fill-opacity:1;fill-rule:nonzero;stroke:none;stroke-width:0.00949276" />
  </g>
</svg>
