<?xml version="1.0" encoding="UTF-8" standalone="no"?>
<!-- Created with Inkscape (http://www.inkscape.org/) -->

<svg
   width="56.278713mm"
   height="66.422394mm"
   viewBox="0 0 56.278714 66.422394"
   version="1.1"
   id="svg1"
   xmlns="http://www.w3.org/2000/svg"
   xmlns:svg="http://www.w3.org/2000/svg">
  <defs
     id="defs1" />
  <g
     id="layer1"
     transform="translate(-33.31204,-29.155824)">
    <path
       id="path63"
       d="m 77.79871,79.773969 c -1.167608,0.635286 -2.132192,1.492048 -2.928725,2.479946 -1.368685,1.697008 -2.246814,3.781605 -2.823817,5.804028 -0.95099,3.33768 -1.080183,6.505361 -1.230749,7.475781 -0.666366,4.31683 -10.429761,2.05156 -16.065738,-1.0423 -2.531424,-1.38908 -4.230376,-2.946214 -3.898163,-4.148779 -9.39e-4,-0.01269 4.666531,-16.663145 4.666531,-16.663145 0,0 19.859968,3.341562 22.280661,6.094469"
       style="fill:#995833;fill-opacity:1;fill-rule:nonzero;stroke:none;stroke-width:0.00971385" />
    <path
       id="path64"
       d="m 89.446588,67.12848 c 1.217141,0.914068 1.238517,2.98118 -1.96803,3.525151 -4.031246,0.509008 -0.602255,-8.101351 -0.602255,-8.101351 0.03206,-0.169991 0.802362,3.249283 2.570285,4.5762"
       style="fill:#431815;fill-opacity:1;fill-rule:nonzero;stroke:none;stroke-width:0.00971385" />
    <path
       id="path65"
       d="m 87.129834,75.013207 c 0.951955,1.332747 0.09519,2.379897 -1.047157,2.379897 -0.0078,0 -0.01749,0.01166 -0.02817,0.03303 -0.197191,0.379816 -0.899504,3.999198 -1.971912,5.013324 -1.67078,1.584324 -5.371758,1.355082 -12.318133,-0.720773 L 57.954279,78.332433 c 0,0 -13.767437,-14.269642 -12.529897,-28.26633 0.67317,-7.608859 8.950345,-19.139205 27.803953,-14.091889 5.756434,1.540624 12.142316,7.024087 13.953951,12.414305 0.592543,1.765978 0.899499,9.390377 0.899499,9.390377 -0.0204,0.540095 -1.024807,3.855427 -1.047152,4.379975 -0.130167,2.999642 0.46918,6.028418 0.19039,8.474363 -0.05343,0.46821 -0.285588,1.142349 0.285585,2.094309 0.0087,0.0087 0.01845,0.01846 0.02428,0.02817 0.541055,0.596425 0.344838,2.257494 -0.405069,2.257494"
       style="fill:#431815;fill-opacity:1;fill-rule:nonzero;stroke:none;stroke-width:0.00971385" />
    <path
       id="path66"
       d="m 83.600794,61.890766 c -0.068,0.906303 0.282673,1.671756 0.781962,1.70964 0.500265,0.03692 0.960702,-0.667341 1.028698,-1.574612 0.06799,-0.906302 -0.282675,-1.671756 -0.78294,-1.70964 -0.499289,-0.03692 -0.959726,0.667342 -1.02772,1.574612"
       style="fill:#070707;fill-opacity:1;fill-rule:nonzero;stroke:none;stroke-width:0.00971385" />
    <path
       id="path67"
       d="m 74.656275,82.53562 c -1.369651,1.696037 -2.033104,3.4999 -2.610107,5.522323 -3.004495,-1.557134 -7.639946,-4.651967 -11.291382,-10.188862 7.848788,2.558627 11.826611,4.084676 13.901489,4.666539"
       style="fill:#311112;fill-opacity:1;fill-rule:nonzero;stroke:none;stroke-width:0.00971385" />
    <path
       id="path68"
       d="m 86.273074,58.635655 c 0.320557,0.185537 1.829112,-1.188974 0.475977,-1.713523 -2.34395,-0.909217 -5.808883,0.475984 -7.41361,2.470235 2.081676,-0.09034 3.21528,-2.911241 6.937633,-0.756712"
       style="fill:#070707;fill-opacity:1;fill-rule:nonzero;stroke:none;stroke-width:0.00971385" />
    <path
       id="path70"
       d="m 64.917168,69.542369 c -1.04715,0.387583 -2.502283,0.911162 -4.149757,0.07673 1.578503,-2.730563 3.078324,-5.866195 4.31295,-8.891087 1.87963,2.061284 1.442507,8.220831 -0.163193,8.814351"
       style="fill:#86492a;fill-opacity:1;fill-rule:nonzero;stroke:none;stroke-width:0.00971385" />
    <path
       id="path71"
       d="m 64.000185,59.534191 c -5.825396,-2.248759 -6.146928,4.45283 -4.10216,7.766224 1.142348,1.851457 4.164327,2.405147 5.331934,1.999111 1.819402,-0.632373 2.855872,-8.187808 -1.229774,-9.765335"
       style="fill:#995833;fill-opacity:1;fill-rule:nonzero;stroke:none;stroke-width:0.00971385" />
    <path
       id="path72"
       d="m 65.062876,66.14155 c 0,0 1.003446,-0.933499 0.05246,-1.238516 -2.31384,-0.741164 -0.210789,-1.428904 -1.145265,-1.473594 -1.036461,-0.04857 -1.088916,0.493469 -1.02675,1.152068 0.0612,0.657622 1.258915,1.603755 2.119559,1.560042"
       style="fill:#86492a;fill-opacity:1;fill-rule:nonzero;stroke:none;stroke-width:0.00971385" />
    <path
       id="path74"
       d="m 76.864236,70.866364 c -0.991781,1.293885 -3.399851,1.112239 -5.378561,-0.405067 -1.978713,-1.517299 -2.77816,-3.795199 -1.786379,-5.089084 0.99179,-1.293885 3.39985,-1.112238 5.378564,0.405067 1.97871,1.51633 2.778156,3.7952 1.786376,5.089084"
       style="fill:#311112;fill-opacity:1;fill-rule:nonzero;stroke:none;stroke-width:0.00971385" />
    <path
       id="path75"
       d="m 80.273797,62.349265 c 0,0 5.141539,-1.619301 5.713691,-1.80969 0.571173,-0.190397 0.475975,-0.571174 0.475975,-0.571174 0,0 -0.857731,0 -1.048127,0 -1.523127,0 -5.141539,2.000079 -5.141539,2.000079 v 0.380785"
       style="fill:#070707;fill-opacity:1;fill-rule:nonzero;stroke:none;stroke-width:0.00971385" />
    <path
       id="path76"
       d="m 87.129834,75.013207 c 0.951955,1.332747 0.09519,2.379897 -1.047157,2.379897 -0.0078,0 -0.01749,0.01166 -0.02817,0.03303 -2.44789,-1.365763 -2.44789,-1.936938 -4.542197,-3.079287 2.379895,-0.572151 3.331846,-1.333714 6.02259,-1.591128 0.541055,0.596425 0.344839,2.257494 -0.405069,2.257494"
       style="fill:#311112;fill-opacity:1;fill-rule:nonzero;stroke:none;stroke-width:0.00971385" />
    <path
       id="path77"
       d="m 85.320145,43.781238 c 0,0 -13.806298,6.284863 -17.6151,23.32878 -1.752376,7.843937 3.428015,20.471941 3.428015,20.471941 0,0 -27.759264,28.437291 -32.373348,22.947021 -6.879345,-8.18586 -1.289995,-49.814556 0.856761,-63.319727 2.284698,-14.377469 22.867376,-24.773235 40.657324,-11.807184 0.391467,0.285588 -1.21132,1.393937 -0.761563,1.619298 2.095278,1.04716 3.715548,4.149757 5.807911,6.759871"
       style="fill:#2d6f97;fill-opacity:1;fill-rule:nonzero;stroke:none;stroke-width:0.00971385" />
    <path
       id="path78"
       d="m 74.656275,83.011596 c 0,0 1.808721,0.475975 2.379897,2.760674 0.223419,0.893676 -0.351645,3.666007 -0.351645,3.666007 0,0 1.114183,1.189954 1.780549,2.904446 0.23896,0.614881 -0.148622,2.647991 -0.148622,2.647991 0,0 2.366295,2.54989 2.528517,3.73109 0.667343,4.855946 -0.910186,6.653006 -2.105965,6.305256 -3.275509,-0.95099 -9.216497,-2.5732 -16.556285,-4.11479 C 50.851518,98.531414 33.998958,109.9578 37.04522,98.912194 40.092457,87.867547 49.598432,72.923758 51.224529,73.016042 c 1.627068,0.09228 8.863885,9.995554 23.431746,9.995554"
       style="fill:#2d6f97;fill-opacity:1;fill-rule:nonzero;stroke:none;stroke-width:0.00971385" />
    <path
       id="path79"
       d="m 79.055682,37.95001 c -0.169023,0.167079 -0.347756,0.351649 -0.519692,0.532324 -0.173879,0.18165 -0.342899,0.36815 -0.512889,0.55369 -0.339018,0.372036 -0.670256,0.751852 -0.993727,1.137489 -0.652773,0.766423 -1.273488,1.560042 -1.872832,2.366294 -1.199665,1.613473 -2.289557,3.301738 -3.275511,5.043433 -0.983039,1.74169 -1.85049,3.545551 -2.586801,5.397986 -0.366209,0.926701 -0.70328,1.86409 -1.004409,2.813128 -0.301132,0.949045 -0.565345,1.909748 -0.792648,2.878216 -0.117544,0.482781 -0.212736,0.971383 -0.315707,1.458047 -0.08937,0.489577 -0.182614,0.978187 -0.253531,1.470679 l -0.05829,0.36913 c -0.01749,0.123362 -0.03206,0.246726 -0.04857,0.370097 -0.03011,0.246727 -0.06703,0.493461 -0.0952,0.740195 l -0.07771,0.743109 c -0.02817,0.246727 -0.0408,0.496376 -0.06217,0.744079 l -0.02818,0.373012 c -0.0097,0.123364 -0.0136,0.248672 -0.0204,0.373012 l -0.03885,0.746024 c -0.01069,0.49832 -0.03206,0.99664 -0.02332,1.49593 0.0029,0.249649 -0.0049,0.499297 0.0049,0.748938 l 0.02039,0.747969 c 0.0049,0.249648 0.02622,0.499289 0.03885,0.748938 0.01554,0.248673 0.02234,0.49929 0.04663,0.747969 0.285587,3.995306 1.195772,7.945926 2.467321,11.800384 v 9.4e-4 c 0.06508,0.197194 -0.04177,0.408958 -0.237993,0.473069 -0.183592,0.06022 -0.37981,-0.02817 -0.457522,-0.199139 -1.721297,-3.743701 -2.904444,-7.773011 -3.403734,-11.91597 -0.499289,-4.141015 -0.284617,-8.388876 0.649858,-12.474522 0.462381,-2.0438 1.103495,-4.046792 1.903913,-5.978878 0.795565,-1.934999 1.760148,-3.796174 2.85587,-5.569919 0.274907,-0.442951 0.558548,-0.881051 0.847051,-1.314284 l 0.443922,-0.64209 0.455583,-0.63431 c 0.616824,-0.838307 1.267657,-1.649412 1.941796,-2.440123 0.338043,-0.394381 0.687741,-0.778081 1.043269,-1.156921 0.356494,-0.376895 0.715913,-0.751851 1.087949,-1.113207 0.373009,-0.360385 0.753796,-0.713971 1.14138,-1.058811 0.195248,-0.171935 0.393411,-0.339989 0.594488,-0.50609 0.20302,-0.167079 0.401184,-0.326386 0.621682,-0.489582 0.17874,-0.132107 0.431295,-0.09422 0.563408,0.08451 0.12142,0.164173 0.100052,0.387589 -0.03983,0.526498 l -0.0087,0.0087"
       style="fill:#235b71;fill-opacity:1;fill-rule:nonzero;stroke:none;stroke-width:0.00971385" />
    <path
       id="path80"
       d="m 75.751029,89.438277 c -0.402153,0.02528 -0.805276,0.01945 -1.208407,0.01165 -0.403122,-0.01457 -0.806245,-0.03787 -1.209373,-0.06992 -0.403123,-0.03111 -0.804307,-0.07866 -1.20646,-0.128226 -0.401178,-0.05442 -0.801393,-0.115586 -1.201601,-0.185526 C 69.32823,88.783583 67.749727,88.36491 66.212998,87.81219 65.442693,87.539236 64.686949,87.225476 63.940926,86.88452 63.198792,86.539681 62.46734,86.165692 61.75531,85.754796 60.329319,84.935919 58.973268,83.984935 57.723096,82.905729 57.567669,82.769733 57.408366,82.638595 57.256831,82.497747 l -0.456554,-0.418669 c -0.297243,-0.286557 -0.593518,-0.574089 -0.87716,-0.875215 -0.289471,-0.294331 -0.562431,-0.605176 -0.839277,-0.912131 -0.267133,-0.315706 -0.535236,-0.629457 -0.788767,-0.956819 -0.128223,-0.16124 -0.256445,-0.323463 -0.377864,-0.48957 -0.123371,-0.166106 -0.247703,-0.331238 -0.36816,-0.499289 -0.233132,-0.339982 -0.473062,-0.67608 -0.692592,-1.025778 -0.451695,-0.690655 -0.856762,-1.410453 -1.239492,-2.138992 -0.75379,-1.463874 -1.38131,-2.987009 -1.858255,-4.550941 -0.479866,-1.563925 -0.842191,-3.15603 -1.053955,-4.765613 -0.03206,-0.242844 0.13891,-0.465296 0.381755,-0.497351 0.221475,-0.02913 0.427411,0.111714 0.484718,0.321533 0.84705,3.053059 1.945686,6.008987 3.486305,8.713324 0.09228,0.170959 0.192334,0.337066 0.291415,0.504149 0.100051,0.166106 0.195249,0.335127 0.300159,0.499289 0.207874,0.327355 0.412833,0.656655 0.632372,0.976243 0.211756,0.324441 0.442951,0.635287 0.667341,0.950984 0.236046,0.305987 0.461406,0.621692 0.70814,0.919904 0.482773,0.605176 0.993727,1.187031 1.526041,1.748493 0.532321,0.560487 1.08698,1.101551 1.666896,1.615411 0.579917,0.511923 1.178295,1.00636 1.797065,1.474562 0.62266,0.463352 1.258915,0.910194 1.916545,1.327887 1.31137,0.839276 2.690735,1.581417 4.119639,2.232242 1.429881,0.647912 2.908328,1.203547 4.420774,1.673694 1.51536,0.464325 3.060839,0.856766 4.647109,1.113208"
       style="fill:#235b71;fill-opacity:1;fill-rule:nonzero;stroke:none;stroke-width:0.00971385" />
    <path
       id="path81"
       d="m 77.56072,95.341384 c -1.904888,0.20885 -3.828231,0.20982 -5.747686,0.14182 -1.919456,-0.0816 -3.837942,-0.27393 -5.742829,-0.58282 -1.904889,-0.30794 -3.797145,-0.73049 -5.655406,-1.28904 -1.857286,-0.56243 -3.686407,-1.247259 -5.442665,-2.104985 -0.879107,-0.426433 -1.745579,-0.883955 -2.580973,-1.397827 -0.212734,-0.12239 -0.415756,-0.260324 -0.624599,-0.389518 L 51.456686,89.520848 51.151676,89.31491 C 50.742718,89.041955 50.348339,88.74762 49.952982,88.456205 48.389057,87.261402 46.94655,85.892727 45.712886,84.349192 L 45.483645,84.058747 45.368047,83.914014 45.259255,83.764416 44.8231,83.166046 C 44.547224,82.757095 44.268442,82.350082 44.020739,81.92267 43.758465,81.505946 43.53213,81.066886 43.297051,80.634613 43.084318,80.190693 42.856045,79.754539 42.673422,79.297993 L 42.52966,78.958974 42.45875,78.788985 42.39367,78.617049 42.135288,77.92834 c -0.08354,-0.230218 -0.154451,-0.465296 -0.231195,-0.696483 l -0.111707,-0.349699 c -0.03497,-0.117543 -0.06508,-0.236046 -0.09714,-0.353589 l -0.190391,-0.707165 -0.159303,-0.712999 -0.07674,-0.357472 -0.0612,-0.35941 c -0.04273,-0.239929 -0.08159,-0.47889 -0.120449,-0.718827 -0.03885,-0.240898 0.125308,-0.468204 0.366214,-0.507063 0.224389,-0.03691 0.437123,0.102972 0.497343,0.316673 l 0.0039,0.01458 c 0.49832,1.809691 1.114176,3.574702 1.963164,5.220223 0.203022,0.415755 0.436155,0.814995 0.657631,1.219093 0.243819,0.391466 0.474037,0.791674 0.736311,1.170514 0.246728,0.388559 0.528432,0.753797 0.795565,1.126809 l 0.425466,0.543002 0.106849,0.135027 0.111713,0.132107 0.223414,0.262274 c 1.188006,1.403653 2.557659,2.647998 4.026393,3.762174 0.373012,0.271016 0.745054,0.544947 1.130692,0.799446 l 0.285588,0.196226 0.292384,0.187475 c 0.196224,0.122393 0.386613,0.25353 0.586721,0.370096 l 0.596425,0.356494 0.605176,0.341936 c 0.201076,0.116563 0.407981,0.220495 0.611972,0.331232 0.203991,0.111723 0.411865,0.215655 0.619747,0.319597 3.325051,1.67175 6.914313,2.839353 10.582265,3.700003 1.835917,0.42741 3.697097,0.77418 5.572836,1.05394 0.937388,0.14377 1.880604,0.26228 2.82576,0.36622 0.473062,0.0534 0.947099,0.10102 1.422109,0.14085 0.474037,0.0457 0.950013,0.0806 1.427935,0.10977"
       style="fill:#235b71;fill-opacity:1;fill-rule:nonzero;stroke:none;stroke-width:0.00971385" />
    <path
       id="path82"
       d="m 75.798625,103.48255 c -2.798559,-0.89561 -5.60003,-1.697 -8.418996,-2.37989 -2.818956,-0.67317 -5.656375,-1.227826 -8.504473,-1.510496 -1.424052,-0.14181 -2.848098,-0.20885 -4.263409,-0.1797 -0.707171,0.0195 -1.412397,0.0573 -2.111793,0.12919 -0.698422,0.0777 -1.391991,0.1797 -2.074879,0.32444 -1.368677,0.277816 -2.689765,0.731456 -3.918563,1.366726 -1.232687,0.63529 -2.334237,1.50178 -3.306596,2.52562 l -0.0049,0.005 c -0.169022,0.17777 -0.44975,0.18553 -0.627513,0.0166 -0.160279,-0.15155 -0.181647,-0.39536 -0.06023,-0.57215 0.860651,-1.25503 2.003969,-2.3391 3.30951,-3.16186 0.651802,-0.412836 1.342458,-0.763506 2.053511,-1.057836 0.178732,-0.0699 0.355527,-0.14668 0.536204,-0.21078 l 0.543971,-0.1904 0.550776,-0.16611 c 0.183591,-0.0564 0.369129,-0.10005 0.553689,-0.14959 0.742141,-0.18359 1.493023,-0.32639 2.245845,-0.42352 0.753797,-0.0932 1.509531,-0.15154 2.264297,-0.17389 0.754767,-0.0282 1.507588,-0.0127 2.257502,0.0253 0.374949,0.0165 0.747962,0.0437 1.12195,0.0739 0.373011,0.036 0.745047,0.071 1.116121,0.11658 2.969524,0.35455 5.866194,1.06464 8.666697,2.00979 1.400734,0.472086 2.778162,1.004406 4.127414,1.596956 0.675114,0.29724 1.342457,0.60711 2.001055,0.93739 0.329301,0.16609 0.656654,0.33415 0.982069,0.50609 0.322497,0.17776 0.645969,0.35164 0.960697,0.54299"
       style="fill:#235b71;fill-opacity:1;fill-rule:nonzero;stroke:none;stroke-width:0.00971385" />
  </g>
</svg>
